<svg width="60" height="25" viewBox="0 0 60 25" fill="none" xmlns="http://www.w3.org/2000/svg">
<path d="M0 24.29V23.1527C0 20.6673 1.23511 19.0342 3.70533 18.2533C6.17511 17.472 8.36378 17.0813 10.2713 17.0813C12.1784 17.0813 14.3669 17.4709 16.8367 18.25C19.3069 19.0296 20.542 20.6638 20.542 23.1527V24.29H0ZM10.268 13.51C8.81778 13.51 7.57733 12.9927 6.54667 11.958C5.51556 10.9229 5 9.67866 5 8.22533C5 6.772 5.51644 5.52978 6.54933 4.49867C7.58222 3.468 8.82378 2.95267 10.274 2.95267C11.7242 2.95267 12.9647 3.46978 13.9953 4.504C15.0264 5.53867 15.542 6.78111 15.542 8.23133C15.542 9.68155 15.0256 10.924 13.9927 11.9587C12.9598 12.9929 11.7182 13.51 10.268 13.51ZM24.1887 17.5073C23.6784 17.5073 23.2571 17.3476 22.9247 17.028C22.5922 16.7084 22.426 16.298 22.426 15.7967C22.426 15.5464 22.5922 15.1133 22.9247 14.4973C23.2696 14.0084 23.542 13.4973 23.742 12.964C23.942 12.4307 24.042 11.8747 24.042 11.296C24.042 10.7173 23.942 10.1453 23.742 9.58C23.542 9.01466 23.2678 8.51511 22.9193 8.08133C22.7753 7.88711 22.6571 7.68511 22.5647 7.47533C22.4722 7.26555 22.426 7.04333 22.426 6.80866C22.426 6.30066 22.5927 5.88133 22.926 5.55066C23.2593 5.22044 23.6802 5.05533 24.1887 5.05533C24.4131 5.05533 24.6438 5.09133 24.8807 5.16333C25.1176 5.23533 25.3027 5.36022 25.436 5.538C26.2129 6.34866 26.7818 7.25089 27.1427 8.24467C27.5036 9.23844 27.684 10.256 27.684 11.2973C27.684 12.3302 27.4898 13.3673 27.1013 14.4087C26.7129 15.4504 26.142 16.3438 25.3887 17.0887C25.2109 17.2664 25.0256 17.3807 24.8327 17.4313C24.6402 17.482 24.4256 17.5073 24.1887 17.5073ZM29.266 22.5787C28.7469 22.5787 28.3249 22.4111 28 22.076C27.6756 21.7413 27.5133 21.3178 27.5133 20.8053C27.5133 20.5689 27.5564 20.3489 27.6427 20.1453C27.7289 19.9413 27.8442 19.7438 27.9887 19.5527C29.0811 18.274 29.8909 16.9376 30.418 15.5433C30.9451 14.1491 31.2087 12.7324 31.2087 11.2933C31.2087 9.85422 30.9451 8.42511 30.418 7.006C29.8909 5.58644 29.0802 4.25444 27.986 3.01C27.8433 2.82066 27.7289 2.62667 27.6427 2.428C27.5564 2.22889 27.5133 2.00533 27.5133 1.75733C27.5133 1.24089 27.6798 0.818889 28.0127 0.491333C28.346 0.163777 28.7676 0 29.2773 0C29.5382 0 29.7804 0.0606654 30.004 0.181999C30.2276 0.303332 30.4327 0.464889 30.6193 0.666667C32.0096 2.26667 33.0484 3.96467 33.736 5.76067C34.424 7.55667 34.768 9.39955 34.768 11.2893C34.768 13.1787 34.424 15.0213 33.736 16.8173C33.0484 18.6138 32.0098 20.312 30.62 21.912C30.4453 22.1342 30.2458 22.3009 30.0213 22.412C29.7973 22.5231 29.5456 22.5787 29.266 22.5787ZM38.858 24.29V23.1527C38.858 20.6638 40.0931 19.0296 42.5633 18.25C45.0331 17.4709 47.2216 17.0813 49.1287 17.0813C51.0362 17.0813 53.2249 17.472 55.6947 18.2533C58.1649 19.0342 59.4 20.6673 59.4 23.1527V24.29H38.858ZM49.126 13.51C47.6758 13.51 46.4353 12.9927 45.4047 11.958C44.3736 10.9229 43.858 9.67866 43.858 8.22533C43.858 6.772 44.3744 5.52978 45.4073 4.49867C46.4402 3.468 47.6818 2.95267 49.132 2.95267C50.5822 2.95267 51.8227 3.46978 52.8533 4.504C53.8844 5.53867 54.4 6.78111 54.4 8.23133C54.4 9.68155 53.8836 10.924 52.8507 11.9587C51.8178 12.9929 50.5762 13.51 49.126 13.51Z" fill="black"/>
</svg>
