<svg width="45" height="44" viewBox="0 0 45 44" fill="none" xmlns="http://www.w3.org/2000/svg">
<path d="M19.5436 43.48C18.6819 43.48 17.9556 43.1844 17.365 42.5933C16.7739 42.0027 16.4783 41.2764 16.4783 40.4147V24.558L0.640974 4.32067C-0.0874702 3.42689 -0.195027 2.48333 0.318307 1.49C0.83164 0.496665 1.64008 0 2.74364 0H41.677C42.7805 0 43.589 0.496665 44.1023 1.49C44.6156 2.48333 44.5134 3.42689 43.7956 4.32067L27.9583 24.558V40.542C27.9583 41.3829 27.6761 42.0827 27.1116 42.6413C26.5476 43.2004 25.8452 43.48 25.0043 43.48H19.5436ZM22.2103 24.442L37.9076 4.558H6.52897L22.2103 24.442Z" fill="black"/>
</svg>
