<svg width="51" height="49" viewBox="0 0 51 49" fill="none" xmlns="http://www.w3.org/2000/svg">
<path d="M4.542 48.8133C3.29311 48.8133 2.22378 48.3687 1.334 47.4793C0.444667 46.5895 0 45.5202 0 44.2713V4.558C0 3.30467 0.444667 2.23178 1.334 1.33933C2.22378 0.446442 3.29311 0 4.542 0H41.9233C42.5642 0 43.1029 0.222441 43.5393 0.66733C43.9758 1.11266 44.194 1.65689 44.194 2.3C44.194 2.94356 43.9758 3.48089 43.5393 3.912C43.1029 4.34267 42.5642 4.558 41.9233 4.558H4.542V44.2713H44.2553V22.0913C44.2553 21.4504 44.4747 20.9118 44.9133 20.4753C45.352 20.0389 45.8931 19.8207 46.5367 19.8207C47.1802 19.8207 47.7204 20.0389 48.1573 20.4753C48.5947 20.9118 48.8133 21.4504 48.8133 22.0913V44.2713C48.8133 45.5202 48.3669 46.5895 47.474 47.4793C46.5816 48.3687 45.5087 48.8133 44.2553 48.8133H4.542ZM23.2273 31.264L47.374 7.11733C47.8007 6.69644 48.2918 6.486 48.8473 6.486C49.4033 6.486 49.89 6.69644 50.3073 7.11733C50.7247 7.53866 50.9333 8.03022 50.9333 8.592C50.9333 9.15377 50.728 9.63288 50.3173 10.0293L24.8347 35.512C24.3738 35.9649 23.8362 36.1913 23.222 36.1913C22.6073 36.1913 22.0736 35.9649 21.6207 35.512L9.89134 23.7827C9.47 23.3613 9.25933 22.8736 9.25933 22.3193C9.25933 21.7647 9.47 21.2767 9.89134 20.8553C10.3127 20.434 10.798 20.2233 11.3473 20.2233C11.8967 20.2233 12.382 20.434 12.8033 20.8553L23.2273 31.264Z" fill="black"/>
</svg>
