<svg width="24" height="24" viewBox="0 0 24 24" fill="none" xmlns="http://www.w3.org/2000/svg">
<path d="M4.54784 19.4463H5.65384L17.1491 7.97601L16.0551 6.87601L4.54784 18.3523V19.4463ZM3.70234 21.1495C3.45767 21.1495 3.25459 21.0687 3.09309 20.907C2.93142 20.7455 2.85059 20.5424 2.85059 20.2978V18.3773C2.85059 18.1493 2.89725 17.9265 2.99059 17.709C3.08392 17.4913 3.20717 17.3059 3.36034 17.1528L17.2136 3.31851C17.3509 3.17717 17.5163 3.06701 17.7096 2.98801C17.9029 2.90901 18.1036 2.86951 18.3116 2.86951C18.5028 2.86951 18.694 2.90901 18.8853 2.98801C19.0767 3.06701 19.2533 3.17517 19.4153 3.31251L20.7126 4.59176C20.8666 4.75376 20.9789 4.93142 21.0496 5.12476C21.1203 5.31809 21.1556 5.51234 21.1556 5.70751C21.1556 5.90284 21.1161 6.10034 21.0371 6.30001C20.9581 6.49967 20.8499 6.67017 20.7126 6.81151L6.85934 20.6398C6.702 20.7929 6.51559 20.9162 6.30009 21.0095C6.08459 21.1028 5.86284 21.1495 5.63484 21.1495H3.70234ZM16.6051 7.42001L16.0551 6.87601L17.1491 7.97601L16.6051 7.42001Z" fill="black"/>
</svg>
