<svg width="24" height="24" viewBox="0 0 24 24" fill="none" xmlns="http://www.w3.org/2000/svg">
<path d="M4.30384 20.5937C3.96867 20.7635 3.64267 20.7502 3.32584 20.5537C3.009 20.3572 2.85059 20.0644 2.85059 19.6752V5.72519C2.85059 5.47669 2.92209 5.25511 3.06509 5.06044C3.20792 4.86594 3.39534 4.72302 3.62734 4.63169L8.15934 3.03769C8.346 2.96702 8.53459 2.93586 8.72509 2.94419C8.91559 2.95252 9.10417 2.98369 9.29084 3.03769L15.3001 5.14469L19.6963 3.38169C20.0315 3.22852 20.3585 3.24602 20.6773 3.43419C20.9962 3.62236 21.1556 3.91102 21.1556 4.30019V12.8327C21.1556 13.0814 21.0738 13.2823 20.9101 13.4354C20.7466 13.5888 20.5425 13.6654 20.2978 13.6654C20.0533 13.6654 19.8503 13.5846 19.6886 13.4229C19.5271 13.2614 19.4463 13.0564 19.4463 12.8077V5.22794L15.9501 6.55994V10.7702C15.9501 10.9869 15.8793 11.166 15.7376 11.3077C15.5959 11.4494 15.4168 11.5202 15.2001 11.5202C14.9834 11.5202 14.8043 11.4494 14.6626 11.3077C14.5209 11.166 14.4501 10.9869 14.4501 10.7702V6.55994L9.55009 4.90994V17.6289C9.55009 17.8943 9.47859 18.1357 9.33559 18.3532C9.19275 18.5707 8.999 18.7271 8.75434 18.8224L4.30384 20.5937ZM4.55384 18.7414L8.05009 17.4094V4.90994L4.55384 6.06694V18.7414ZM16.4518 18.6344C17.0572 18.6344 17.5676 18.4238 17.9831 18.0024C18.3984 17.5809 18.6041 17.0774 18.6001 16.4919C18.5961 15.8866 18.3884 15.3772 17.9771 14.9637C17.5656 14.5504 17.0572 14.3437 16.4518 14.3437C15.8463 14.3437 15.3378 14.5504 14.9263 14.9637C14.515 15.3772 14.3093 15.8866 14.3093 16.4919C14.3093 17.0974 14.515 17.6059 14.9263 18.0172C15.3378 18.4287 15.8463 18.6344 16.4518 18.6344ZM16.4518 20.3437C15.3905 20.3437 14.4833 19.967 13.7301 19.2137C12.9768 18.4605 12.6001 17.5533 12.6001 16.4919C12.6001 15.4141 12.9768 14.5017 13.7301 13.7547C14.4833 13.0079 15.3905 12.6344 16.4518 12.6344C17.5297 12.6344 18.442 13.0079 19.1888 13.7547C19.9358 14.5017 20.3093 15.4141 20.3093 16.4919C20.3093 16.8674 20.2582 17.2252 20.1558 17.5652C20.0535 17.9052 19.9063 18.2232 19.7143 18.5192L21.6983 20.5094C21.8517 20.6628 21.9293 20.845 21.9313 21.0562C21.9333 21.2674 21.8557 21.4496 21.6983 21.6029C21.5492 21.7561 21.3689 21.8327 21.1576 21.8327C20.9464 21.8327 20.7623 21.7561 20.6051 21.6029L18.6268 19.6557C18.3102 19.885 17.9727 20.057 17.6143 20.1717C17.256 20.2864 16.8685 20.3437 16.4518 20.3437Z" fill="black"/>
</svg>
