<svg width="91" height="17" viewBox="0 0 91 17" fill="none" xmlns="http://www.w3.org/2000/svg">
<path d="M-0.000163452 13.3145V0.753693H4.89853C5.99909 0.753693 6.93816 0.927152 7.71573 1.27407C8.4933 1.62098 9.09143 2.12341 9.51013 2.78136C9.92882 3.4393 10.1382 4.22286 10.1382 5.13202C10.1382 6.04118 9.92882 6.82473 9.51013 7.48267C9.09143 8.12865 8.4933 8.6251 7.71573 8.97202C6.93816 9.31894 5.99909 9.49239 4.89853 9.49239H0.986753L1.79423 8.66697V13.3145H-0.000163452ZM8.3976 13.3145L5.20358 8.75669H7.12358L10.3535 13.3145H8.3976ZM1.79423 8.84641L0.986753 7.96716H4.8447C5.99311 7.96716 6.8604 7.72192 7.44657 7.23146C8.0447 6.72903 8.34377 6.02921 8.34377 5.13202C8.34377 4.23482 8.0447 3.54099 7.44657 3.05052C6.8604 2.56005 5.99311 2.31482 4.8447 2.31482H0.986753L1.79423 1.41762V8.84641ZM16.8413 13.4221C15.8245 13.4221 14.9273 13.2128 14.1498 12.7941C13.3841 12.3754 12.786 11.8012 12.3554 11.0715C11.9367 10.3417 11.7273 9.50436 11.7273 8.55931C11.7273 7.61426 11.9307 6.77688 12.3374 6.04716C12.7561 5.31744 13.3243 4.74921 14.0421 4.34248C14.7718 3.92379 15.5913 3.71444 16.5004 3.71444C17.4215 3.71444 18.235 3.91781 18.9408 4.32454C19.6466 4.73127 20.1969 5.30547 20.5916 6.04716C20.9984 6.77688 21.2017 7.6322 21.2017 8.61314C21.2017 8.68492 21.1957 8.76865 21.1838 8.86436C21.1838 8.96006 21.1778 9.04978 21.1658 9.13351H13.0731V7.89538H20.2686L19.5688 8.32604C19.5808 7.71594 19.4552 7.17164 19.192 6.69314C18.9288 6.21463 18.564 5.84379 18.0974 5.58061C17.6428 5.30547 17.1105 5.1679 16.5004 5.1679C15.9023 5.1679 15.3699 5.30547 14.9034 5.58061C14.4369 5.84379 14.072 6.22061 13.8088 6.71108C13.5456 7.18959 13.4141 7.73987 13.4141 8.36192V8.64903C13.4141 9.28305 13.5576 9.85127 13.8447 10.3537C14.1438 10.8442 14.5565 11.227 15.0828 11.5021C15.6092 11.7773 16.2133 11.9148 16.8952 11.9148C17.4574 11.9148 17.9658 11.8191 18.4204 11.6277C18.887 11.4363 19.2937 11.1492 19.6406 10.7664L20.5916 11.8789C20.161 12.3814 19.6227 12.7642 18.9767 13.0274C18.3427 13.2905 17.6309 13.4221 16.8413 13.4221ZM23.4143 13.3145V4.80381e-05H25.1369V13.3145H23.4143ZM34.1501 13.3145V11.3047L34.0604 10.9279V7.50062C34.0604 6.7709 33.8451 6.20865 33.4144 5.81389C32.9957 5.40716 32.3617 5.20379 31.5123 5.20379C30.9501 5.20379 30.3998 5.29949 29.8615 5.49089C29.3232 5.67033 28.8686 5.91557 28.4978 6.2266L27.78 4.93463C28.2705 4.53987 28.8566 4.2408 29.5385 4.03744C30.2323 3.82211 30.9561 3.71444 31.7097 3.71444C33.0137 3.71444 34.0185 4.03145 34.7243 4.66547C35.4301 5.29949 35.783 6.26847 35.783 7.57239V13.3145H34.1501ZM31.0279 13.4221C30.3221 13.4221 29.7 13.3025 29.1617 13.0632C28.6353 12.824 28.2286 12.495 27.9415 12.0763C27.6544 11.6457 27.5108 11.1612 27.5108 10.6229C27.5108 10.1085 27.6305 9.64193 27.8697 9.22323C28.1209 8.80454 28.5217 8.46959 29.072 8.21837C29.6342 7.96716 30.3879 7.84155 31.3329 7.84155H34.3475V9.07968H31.4047C30.5434 9.07968 29.9632 9.22323 29.6641 9.51034C29.365 9.79744 29.2155 10.1444 29.2155 10.5511C29.2155 11.0176 29.4009 11.3945 29.7718 11.6816C30.1426 11.9567 30.657 12.0943 31.315 12.0943C31.9609 12.0943 32.5232 11.9507 33.0017 11.6636C33.4922 11.3765 33.8451 10.9578 34.0604 10.4075L34.4013 11.5918C34.174 12.1541 33.7733 12.6027 33.1991 12.9376C32.6249 13.2606 31.9011 13.4221 31.0279 13.4221ZM37.4097 13.3145L41.5009 8.00305L41.483 8.8823L37.5892 3.80416H39.5092L42.4879 7.71594H41.7522L44.7309 3.80416H46.615L42.6673 8.91819L42.6853 8.00305L46.8124 13.3145H44.8565L41.7163 9.15146L42.4161 9.25912L39.3297 13.3145H37.4097ZM53.4034 13.3145V0.753693H54.8748L60.5092 10.246H59.7197L65.2823 0.753693H66.7537L66.7716 13.3145H65.049L65.0311 3.46323H65.4438L60.4912 11.7892H59.6658L54.6774 3.46323H55.126V13.3145H53.4034ZM76.0142 13.3145V11.3047L75.9244 10.9279V7.50062C75.9244 6.7709 75.7091 6.20865 75.2785 5.81389C74.8598 5.40716 74.2257 5.20379 73.3764 5.20379C72.8142 5.20379 72.2639 5.29949 71.7256 5.49089C71.1872 5.67033 70.7327 5.91557 70.3618 6.2266L69.6441 4.93463C70.1345 4.53987 70.7207 4.2408 71.4026 4.03744C72.0964 3.82211 72.8201 3.71444 73.5738 3.71444C74.8777 3.71444 75.8826 4.03145 76.5884 4.66547C77.2942 5.29949 77.6471 6.26847 77.6471 7.57239V13.3145H76.0142ZM72.8919 13.4221C72.1861 13.4221 71.5641 13.3025 71.0257 13.0632C70.4994 12.824 70.0927 12.495 69.8056 12.0763C69.5184 11.6457 69.3749 11.1612 69.3749 10.6229C69.3749 10.1085 69.4945 9.64193 69.7338 9.22323C69.985 8.80454 70.3857 8.46959 70.936 8.21837C71.4983 7.96716 72.2519 7.84155 73.197 7.84155H76.2115V9.07968H73.2687C72.4074 9.07968 71.8272 9.22323 71.5282 9.51034C71.2291 9.79744 71.0796 10.1444 71.0796 10.5511C71.0796 11.0176 71.265 11.3945 71.6358 11.6816C72.0067 11.9567 72.5211 12.0943 73.179 12.0943C73.825 12.0943 74.3872 11.9507 74.8657 11.6636C75.3562 11.3765 75.7091 10.9578 75.9244 10.4075L76.2654 11.5918C76.0381 12.1541 75.6373 12.6027 75.0631 12.9376C74.4889 13.2606 73.7652 13.4221 72.8919 13.4221ZM85.6977 13.4221C84.9082 13.4221 84.1844 13.2427 83.5265 12.8838C82.8805 12.513 82.3601 11.9687 81.9654 11.2509C81.5826 10.5331 81.3912 9.63594 81.3912 8.55931C81.3912 7.48267 81.5766 6.58547 81.9474 5.86772C82.3302 5.14996 82.8446 4.61164 83.4906 4.25276C84.1486 3.89388 84.8843 3.71444 85.6977 3.71444C86.6308 3.71444 87.4562 3.91781 88.174 4.32454C88.8917 4.73127 89.46 5.29949 89.8787 6.02921C90.2973 6.74697 90.5067 7.59034 90.5067 8.55931C90.5067 9.52828 90.2973 10.3776 89.8787 11.1073C89.46 11.8371 88.8917 12.4053 88.174 12.812C87.4562 13.2188 86.6308 13.4221 85.6977 13.4221ZM80.6555 16.7956V3.80416H82.3063V6.37015L82.1986 8.57725L82.3781 10.7844V16.7956H80.6555ZM85.5542 11.9148C86.1643 11.9148 86.7086 11.7773 87.1871 11.5021C87.6775 11.227 88.0603 10.8382 88.3355 10.3358C88.6226 9.82137 88.7661 9.22922 88.7661 8.55931C88.7661 7.87744 88.6226 7.29127 88.3355 6.8008C88.0603 6.29837 87.6775 5.90959 87.1871 5.63445C86.7086 5.35931 86.1643 5.22174 85.5542 5.22174C84.956 5.22174 84.4117 5.35931 83.9213 5.63445C83.4428 5.90959 83.06 6.29837 82.7729 6.8008C82.4977 7.29127 82.3601 7.87744 82.3601 8.55931C82.3601 9.22922 82.4977 9.82137 82.7729 10.3358C83.06 10.8382 83.4428 11.227 83.9213 11.5021C84.4117 11.7773 84.956 11.9148 85.5542 11.9148Z" fill="#4C2613"/>
</svg>
